<?xml version="1.0" encoding="utf-8"?>
<svg version="1.1"
	 id="icon" sodipodi:docname="logo.svg" xmlns:cc="http://creativecommons.org/ns#" xmlns:dc="http://purl.org/dc/elements/1.1/" xmlns:inkscape="http://www.inkscape.org/namespaces/inkscape" xmlns:rdf="http://www.w3.org/1999/02/22-rdf-syntax-ns#" xmlns:sodipodi="http://sodipodi.sourceforge.net/DTD/sodipodi-0.dtd" xmlns:svg="http://www.w3.org/2000/svg"
	 xmlns="http://www.w3.org/2000/svg" xmlns:xlink="http://www.w3.org/1999/xlink" x="0px" y="0px" viewBox="0 0 576 576"
	 style="enable-background:new 0 0 576 576;" xml:space="preserve">
<style type="text/css">
	.st0{fill:url(#SVGID_1_);}
	.st1{fill:#9E67C6;}
	.st2{fill:#954FC6;}
	.st3{fill:#FEF6CB;}
	.st4{fill:#623FBC;}
	.st5{fill:#542BAA;}
	.st6{fill:#381E88;}
</style>
<linearGradient id="SVGID_1_" gradientUnits="userSpaceOnUse" x1="288" y1="576" x2="288" y2="-3.051758e-05">
	<stop  offset="0" style="stop-color:#AC1FAB"/>
	<stop  offset="0.3085" style="stop-color:#AA1FAB"/>
	<stop  offset="0.4798" style="stop-color:#A21DAB"/>
	<stop  offset="0.6176" style="stop-color:#941BAA"/>
	<stop  offset="0.7375" style="stop-color:#8018AA"/>
	<stop  offset="0.8457" style="stop-color:#6715A9"/>
	<stop  offset="0.9442" style="stop-color:#4810A8"/>
	<stop  offset="1" style="stop-color:#330DA7"/>
</linearGradient>
<rect y="0" class="st0" width="576" height="576"/>
<g>
	<path class="st1" d="M576,310.2c-15.6-6.7-35.9,2-49.2,14.2c-15.2,13.9-27.5,32.2-46.8,39.4c-16.7,6.2-35.8,2.5-51.8-5.5
		c-15.9-8-29.5-20-43.3-31.4c-24.8-20.4-51-39.1-78.4-55.9c-7.6-4.6-15.5-9.2-24.4-10.4c-10-1.3-20.1,2-29.4,6
		c-56.9,24.8-99.8,79.6-160.7,91.8c-17.2,3.5-34.9,3.2-52.5,3.8c-13.2,0.4-26.4,1.4-39.6,2.8V576h576V310.2z"/>
</g>
<g>
	<path class="st2" d="M576,379.5c-12-2.4-24.4-5.8-37.7-10.3c-29.1-9.9-57.4-25-88.1-25.4c-23.5-0.3-46.1,8.2-68.9,14
		c-52.1,13.4-107.7,13.3-159.7-0.4c-35.8-9.4-69.8-25-105.6-34.5C78.2,312.9,38.8,310,0,313.9V576c160.2,0,409,0,576,0V379.5z"/>
</g>
<g>
	
		<image style="overflow:visible;opacity:0.5;" width="144" height="151" xlink:href="DB7F27EC.png"  transform="matrix(1 0 0 1 216 51)">
	</image>
	<g>
		<path class="st3" d="M298.5,87.3c0.7,0.3,1.4,0.6,2,0.9c6.4,7.2,10.3,16.7,10.3,27.1c0,22.5-18.2,40.7-40.7,40.7
			c-6.4,0-12.4-1.5-17.7-4.1c7.5,8.3,18.3,13.6,30.3,13.6c22.5,0,40.7-18.2,40.7-40.7C323.5,107.9,313.2,93.4,298.5,87.3z"/>
	</g>
</g>
<polygon class="st4" points="576,424.7 571.3,424.7 571.3,459.6 548,459.6 548,436.4 536.4,436.4 536.4,418.9 501.5,418.9 
	501.5,471.3 472.4,471.3 472.4,436.4 443.3,436.4 443.3,453.8 425.9,453.8 425.9,424.7 396.8,424.7 396.8,436.4 356,436.4 
	356,349.1 332.8,349.1 332.8,343.3 338.6,337.5 280.4,337.5 286.2,343.3 286.2,349.1 262.9,349.1 262.9,465.5 169.9,465.5 
	169.9,360.7 129.1,360.7 129.1,354.9 111.7,354.9 111.7,360.7 47.7,360.7 47.7,436.4 0,436.4 0,576 576,576 "/>
<path class="st5" d="M576,506.2h-4.7c-3.9,15.5-7.8,23.3-11.6,23.3h-81.5v-23.3l5.8-5.8h-17.5v-5.8l-17.5-5.8l-17.5,5.8v5.8h-17.5
	l5.8,5.8v23.3h-87.3v-34.9h-34.9V512h-64v-29.1c0-19.4-7.8-31-23.3-34.9H105.9c-15.5,3.9-23.3,15.5-23.3,34.9H53.5v-64L6.9,372.4
	v23.3L0,402.6V576h576V506.2z"/>
<polygon class="st6" points="576,564.4 548,564.4 548,529.5 478.2,529.5 460.8,558.5 385.1,558.5 385.1,494.5 309.5,471.3 
	309.5,529.5 286.2,529.5 286.2,512 198.9,512 198.9,529.5 169.9,529.5 169.9,494.5 152.4,494.5 152.4,424.7 140.8,401.5 
	134.9,401.5 129.1,366.5 123.3,401.5 117.5,401.5 105.9,424.7 105.9,494.5 88.4,494.5 88.4,552.7 53.5,552.7 24.4,552.7 24.4,465.5 
	1.1,465.5 1.1,459.6 0,459.6 0,576 576,576 "/>
</svg>
